<?xml version="1.0" encoding="UTF-8" standalone="no"?>
<svg
   xmlns:dc="http://purl.org/dc/elements/1.1/"
   xmlns:cc="http://creativecommons.org/ns#"
   xmlns:rdf="http://www.w3.org/1999/02/22-rdf-syntax-ns#"
   xmlns:svg="http://www.w3.org/2000/svg"
   xmlns="http://www.w3.org/2000/svg"
   xmlns:xlink="http://www.w3.org/1999/xlink"
   xmlns:sodipodi="http://sodipodi.sourceforge.net/DTD/sodipodi-0.dtd"
   xmlns:inkscape="http://www.inkscape.org/namespaces/inkscape"
   version="1.1"
   id="svg2"
   viewBox="0 0 64 64"
   height="18.062222mm"
   width="18.062222mm"
   inkscape:version="0.91 r13725"
   sodipodi:docname="polkit-tutorial.svg">
  <sodipodi:namedview
     pagecolor="#ffffff"
     bordercolor="#666666"
     borderopacity="1"
     objecttolerance="10"
     gridtolerance="10"
     guidetolerance="10"
     inkscape:pageopacity="0"
     inkscape:pageshadow="2"
     inkscape:window-width="640"
     inkscape:window-height="480"
     id="namedview21"
     showgrid="false"
     inkscape:zoom="3.6875001"
     inkscape:cx="31.999999"
     inkscape:cy="31.999999"
     inkscape:window-x="0"
     inkscape:window-y="30"
     inkscape:window-maximized="0"
     inkscape:current-layer="svg2" />
  <defs
     id="defs4">
    <linearGradient
       id="linearGradient7068">
      <stop
         id="stop7070"
         offset="0"
         style="stop-color:#000000;stop-opacity:0.83783782" />
      <stop
         id="stop7072"
         offset="1"
         style="stop-color:#0088aa;stop-opacity:1" />
    </linearGradient>
    <linearGradient
       gradientTransform="matrix(0.24940588,0,0,0.24971698,95.766589,249.10484)"
       gradientUnits="userSpaceOnUse"
       y2="343.48767"
       x2="457.09402"
       y1="343.48767"
       x1="326.78433"
       id="linearGradient7074"
       xlink:href="#linearGradient7068" />
  </defs>
  <metadata
     id="metadata7">
    <rdf:RDF>
      <cc:Work
         rdf:about="">
        <dc:format>image/svg+xml</dc:format>
        <dc:type
           rdf:resource="http://purl.org/dc/dcmitype/StillImage" />
        <dc:title></dc:title>
      </cc:Work>
    </rdf:RDF>
  </metadata>
  <g
     transform="translate(-161.51852,-302.87955)"
     id="layer1">
    <path
       style="fill:none;fill-rule:evenodd;stroke:none;stroke-width:1.14367998px;stroke-linecap:butt;stroke-linejoin:miter;stroke-opacity:1"
       d="m 161.51852,302.87955 64,0 0,64 -64,0 z"
       id="rect6236" />
    <path
       style="fill:url(#linearGradient7074);fill-opacity:1;stroke:none"
       d="m 177.26852,313.87955 32.5,0 0,42 -32.5,0 z"
       id="rect6238" />
    <g
       transform="matrix(0.25,0,0,0.25,147.77349,241.15711)"
       style="font-style:normal;font-variant:normal;font-weight:normal;font-stretch:normal;font-size:40px;line-height:125%;font-family:'Cinzel Decorative';-inkscape-font-specification:'Cinzel Decorative';text-align:center;letter-spacing:0px;word-spacing:0px;text-anchor:middle;fill:#ffffff;fill-opacity:1;stroke:none;stroke-width:1px;stroke-linecap:butt;stroke-linejoin:miter;stroke-opacity:1"
       id="flowRoot7048">
      <path
         d="m 152.75449,337.55401 0.52,-0.08 c 1.68,-0.16 2.52,0.84 2.56,2.16 l 0,21.68 c -0.04,1.44 -1.24,2.48 -2.56,2.48 l -0.52,0 0,0.4 8.72,0 0,-0.4 -0.48,0 c -1.32,0 -2.52,-1.04 -2.56,-2.48 l 0,-23.72 c 1.4,-0.24 2.72,-0.52 3.8,-0.68 4.72,-0.52 7.92,1.72 8.12,6.88 0.12,3.8 -1.44,6.88 -4.48,7.44 -2,0.36 -4.68,-0.32 -5.32,-2.76 l -0.36,0.12 c 0.4,3.2 3.24,4.28 5.96,4.12 4.56,-0.28 7.32,-3.96 7.2,-8.92 -0.2,-5.96 -4.56,-8.92 -10.96,-8.12 -1.96,0.24 -6.08,1.08 -9.68,1.48 l 0.04,0.4 z"
         style="text-align:center;text-anchor:middle"
         id="path6252" />
      <path
         d="m 182.92574,339.11401 c 0.04,-1.4 1.2,-2.52 2.56,-2.52 l 0.52,0 0,-0.4 -8.72,0 0,0.4 0.48,0 c 1.4,0 2.52,1.12 2.56,2.52 l 0,22.2 c 0,1.36 -1.16,2.52 -2.56,2.52 l -0.48,0 -0.04,0.4 8.76,0 0,-0.4 -0.52,0 c -1.4,0 -2.52,-1.16 -2.56,-2.52 l 0,-22.2 z m 4.04,10.12 9.32,-10.8 c 1.04,-1.16 2.6,-1.84 4.32,-1.84 l 0.16,0 0,-0.4 -8.44,0 0,0.36 0.36,0 c 1.12,0 1.64,1 0.96,1.92 l -9.4,11.8 13.24,14.12 c 7.12,7.56 13.08,6.8 15.76,6.2 l 0,-0.4 c -4.92,0 -9.48,-3.04 -12.68,-6.44 l -13.6,-14.52 z"
         style="text-align:center;text-anchor:middle"
         id="path6254" />
      <path
         d="m 166.3948,386.15401 c -5.32,0 -8.08,4.36 -5.08,8 l 0.32,-0.2 c -1.8,-3.36 0.48,-6.6 4.76,-6.6 l 8.32,0 0,24 c -0.04,1.36 -1.16,2.48 -2.56,2.48 l -0.48,0 -0.04,0.4 8.76,0 0,-0.4 -0.48,0 c -1.4,0 -2.52,-1.12 -2.56,-2.52 l 0,-23.96 7.56,0 c 1.28,0.08 2.28,1.12 2.28,2.4 l 0,0.72 0.4,0 0,-5.04 c -0.76,0.32 -3.08,0.72 -4.8,0.72 l -16.4,0 z"
         style="text-align:center;text-anchor:middle"
         id="path6256" />
    </g>
    <g
       style="font-style:normal;font-weight:normal;font-size:40px;line-height:125%;font-family:sans-serif;letter-spacing:0px;word-spacing:0px;fill:#000000;fill-opacity:1;stroke:none;stroke-width:1px;stroke-linecap:butt;stroke-linejoin:miter;stroke-opacity:1"
       id="flowRoot7058" />
  </g>
</svg>
